<?xml version="1.0" encoding="UTF-8" standalone="no"?>
<svg
   xmlns:dc="http://purl.org/dc/elements/1.1/"
   xmlns:cc="http://creativecommons.org/ns#"
   xmlns:rdf="http://www.w3.org/1999/02/22-rdf-syntax-ns#"
   xmlns:svg="http://www.w3.org/2000/svg"
   xmlns="http://www.w3.org/2000/svg"
   xmlns:sodipodi="http://sodipodi.sourceforge.net/DTD/sodipodi-0.dtd"
   xmlns:inkscape="http://www.inkscape.org/namespaces/inkscape"
   id="Art_3.0"
   data-name="Art 3.0"
   viewBox="0 0 48 48"
   version="1.1"
   sodipodi:docname="view.svg"
   inkscape:version="0.92.5 (2060ec1f9f, 2020-04-08)">
  <metadata
     id="metadata13">
    <rdf:RDF>
      <cc:Work
         rdf:about="">
        <dc:format>image/svg+xml</dc:format>
        <dc:type
           rdf:resource="http://purl.org/dc/dcmitype/StillImage" />
        <dc:title />
      </cc:Work>
    </rdf:RDF>
  </metadata>
  <sodipodi:namedview
     pagecolor="#ffffff"
     bordercolor="#666666"
     borderopacity="1"
     objecttolerance="10"
     gridtolerance="10"
     guidetolerance="10"
     inkscape:pageopacity="0"
     inkscape:pageshadow="2"
     inkscape:window-width="1848"
     inkscape:window-height="1016"
     id="namedview11"
     showgrid="false"
     inkscape:zoom="8.8386963"
     inkscape:cx="12.532397"
     inkscape:cy="14.812767"
     inkscape:window-x="72"
     inkscape:window-y="27"
     inkscape:window-maximized="1"
     inkscape:current-layer="Art_3.0" />
  <defs
     id="defs4">
    <style
       id="style2">.cls-1{fill:none;}</style>
  </defs>
  <path
     d="m 24,45.45 a 15.18,15.18 0 0 1 0,-30.36 v 1.1 0 a 7.81,7.81 0 0 0 0,15.62 14.08,14.08 0 0 0 0,-28.16 v -1.1 a 21.45,21.45 0 0 1 0,42.9 z M 17.73,17.62 A 14.19,14.19 0 0 0 9.92,30.27 14.08,14.08 0 0 0 24,44.35 20.35,20.35 0 0 0 33.9,6.18 15.51,15.51 0 0 1 39.18,17.73 15.18,15.18 0 0 1 24,32.91 8.91,8.91 0 0 1 17.73,17.62 Z M 24,45.45 a 21.45,21.45 0 0 1 0,-42.9 15.18,15.18 0 0 1 0,30.36 v -1.1 0 a 7.81,7.81 0 0 0 0,-15.62 14.08,14.08 0 0 0 0,28.16 z M 24,3.65 A 20.35,20.35 0 0 0 14.1,41.82 15.51,15.51 0 0 1 8.82,30.27 15.18,15.18 0 0 1 24,15.09 8.91,8.91 0 0 1 30.27,30.38 14.19,14.19 0 0 0 38.08,17.73 14.08,14.08 0 0 0 24,3.65 Z"
     id="path6"
     style="fill:none;stroke:#ffffff;stroke-width:2;stroke-miterlimit:4;stroke-dasharray:none;stroke-opacity:1"
     inkscape:connector-curvature="0" />
  <rect
     class="cls-1"
     width="48"
     height="48"
     id="rect8" />
</svg>
