<?xml version="1.0" encoding="UTF-8" standalone="no"?>
<svg
   xmlns:dc="http://purl.org/dc/elements/1.1/"
   xmlns:cc="http://creativecommons.org/ns#"
   xmlns:rdf="http://www.w3.org/1999/02/22-rdf-syntax-ns#"
   xmlns:svg="http://www.w3.org/2000/svg"
   xmlns="http://www.w3.org/2000/svg"
   xmlns:sodipodi="http://sodipodi.sourceforge.net/DTD/sodipodi-0.dtd"
   xmlns:inkscape="http://www.inkscape.org/namespaces/inkscape"
   id="Art_3.0"
   data-name="Art 3.0"
   viewBox="0 0 48 48"
   version="1.1"
   sodipodi:docname="view-action-snippets-python.svg"
   inkscape:version="0.92.5 (2060ec1f9f, 2020-04-08)">
  <metadata
     id="metadata13">
    <rdf:RDF>
      <cc:Work
         rdf:about="">
        <dc:format>image/svg+xml</dc:format>
        <dc:type
           rdf:resource="http://purl.org/dc/dcmitype/StillImage" />
        <dc:title></dc:title>
      </cc:Work>
    </rdf:RDF>
  </metadata>
  <sodipodi:namedview
     pagecolor="#ffffff"
     bordercolor="#666666"
     borderopacity="1"
     objecttolerance="10"
     gridtolerance="10"
     guidetolerance="10"
     inkscape:pageopacity="0"
     inkscape:pageshadow="2"
     inkscape:window-width="1848"
     inkscape:window-height="1016"
     id="namedview11"
     showgrid="false"
     inkscape:zoom="8.2518239"
     inkscape:cx="-13.115444"
     inkscape:cy="12.170163"
     inkscape:window-x="72"
     inkscape:window-y="27"
     inkscape:window-maximized="1"
     inkscape:current-layer="text824" />
  <defs
     id="defs4">
    <style
       id="style2">.cls-1{fill:none;}</style>
  </defs>
  <rect
     class="cls-1"
     width="48"
     height="48"
     id="rect8" />
  <flowRoot
     xml:space="preserve"
     id="flowRoot814"
     style="font-style:normal;font-weight:bold;font-size:40px;line-height:1.25;font-family:Calibri;letter-spacing:0px;word-spacing:0px;fill:#000000;fill-opacity:1;stroke:none;-inkscape-font-specification:'Calibri Bold';font-stretch:normal;font-variant:normal;"><flowRegion
       id="flowRegion816"
       style="-inkscape-font-specification:'Calibri Bold';font-family:Calibri;font-weight:bold;font-style:normal;font-stretch:normal;font-variant:normal;"><rect
         id="rect818"
         width="41.059105"
         height="40.074474"
         x="3.4462078"
         y="4.0854659"
         style="-inkscape-font-specification:'Calibri Bold';font-family:Calibri;font-weight:bold;font-style:normal;font-stretch:normal;font-variant:normal;" /></flowRegion><flowPara
       id="flowPara820">Pyp</flowPara></flowRoot>  <g
     aria-label="Py"
     transform="scale(0.99606107,1.0039545)"
     style="font-style:normal;font-variant:normal;font-weight:bold;font-stretch:normal;font-size:43.57671356px;line-height:1.25;font-family:Consolas;-inkscape-font-specification:'Consolas Bold';letter-spacing:0px;word-spacing:0px;fill:#ff00ff;fill-opacity:1;stroke:none;stroke-width:1.08941782"
     id="text824">
    <path
       d="m 23.887641,14.358495 q 0,1.887106 -0.707664,3.750623 -0.707665,1.839928 -2.193761,3.302436 -1.486096,1.462507 -3.797801,2.382471 Q 14.87671,24.6904 11.66863,24.6904 H 7.8472405 V 35.753559 H 3.6484296 V 4.9229648 h 8.6806874 q 2.288116,0 4.387522,0.5189542 2.099405,0.4953653 3.679856,1.6276289 1.60404,1.1322636 2.547593,2.9250143 0.943553,1.7927508 0.943553,4.3639328 z m -4.363932,0.18871 q 0,-2.972192 -1.957873,-4.5526428 Q 15.631553,8.4141109 12.140407,8.4141109 H 7.8472405 V 21.104899 h 3.9157445 q 3.727035,0 5.732085,-1.627629 2.028639,-1.627629 2.028639,-4.930065 z"
       style="font-style:normal;font-variant:normal;font-weight:bold;font-stretch:normal;font-size:48.30991364px;font-family:Consolas;-inkscape-font-specification:'Consolas Bold';fill:#fffffd;fill-opacity:1;stroke-width:1.08941782"
       id="path978" />
    <path
       d="m 44.541387,18.534935 -5.865309,15.400722 q -0.908951,2.349553 -1.886502,4.047405 -0.960402,1.697853 -2.109453,2.778304 -1.149052,1.097602 -2.521054,1.612102 -1.372002,0.514501 -3.069854,0.514501 -0.445901,0 -0.806051,-0.01715 -0.360151,-0.01715 -0.788901,-0.05145 v -2.709704 q 0.3773,0.05145 0.823201,0.08575 0.445901,0.05145 0.943251,0.05145 0.823201,0 1.526352,-0.2401 0.720301,-0.2401 1.354852,-0.788901 0.634551,-0.531651 1.217652,-1.389152 0.583101,-0.857501 1.131902,-2.075153 l -6.87716,-17.218624 h 3.395705 l 4.356106,11.387616 0.874651,2.675404 0.994701,-2.744004 4.030256,-11.319016 z"
       style="font-style:normal;font-variant:normal;font-weight:normal;font-stretch:normal;font-size:35.12324905px;font-family:Consolas;-inkscape-font-specification:Consolas;fill:#fffffd;fill-opacity:1;stroke-width:1.08941782"
       id="path980" />
  </g>
</svg>
